<svg xmlns="http://www.w3.org/2000/svg" xmlns:svgjs="http://svgjs.com/svgjs" xmlns:xlink="http://www.w3.org/1999/xlink" width="288" height="288"><svg xmlns="http://www.w3.org/2000/svg" width="288" height="288" fill="none" viewBox="0 0 100 100"><g fill="#000" class="color000 svgShape" clip-path="url(#a)"><path fill="#70bbff" d="M40.3563 65.7721C35.5066 64.9021 31.2932 62.4639 27.6803 58.4366C19.8154 49.6697 20.1565 36.2557 28.4623 27.6841C40.0014 15.7757 59.6765 20.4542 64.9818 36.3678C70.2652 52.2158 56.4884 68.6661 40.3563 65.7721Z" class="color51B7C3 svgShape"/><path fill="#fcd844" fill-opacity=".627" d="M51.2152 65.7721C46.3655 64.9021 42.1521 62.4639 38.5392 58.4366C30.6743 49.6697 31.0154 36.2557 39.3212 27.6841C50.8603 15.7757 70.5354 20.4542 75.8407 36.3679C81.1241 52.2158 67.3473 68.6661 51.2152 65.7721Z" class="color70D6E3 svgShape"/><path d="M10.838 74.91H12.458C12.434 74.202 12.296 73.596 12.044 73.092 11.804 72.576 11.468 72.15 11.036 71.814 10.616 71.478 10.124 71.232 9.56 71.076 8.996 70.92 8.384 70.842 7.724 70.842 7.136 70.842 6.56 70.92 5.996 71.076 5.444 71.22 4.946 71.448 4.502 71.76 4.07 72.06 3.722 72.45 3.458 72.93 3.194 73.398 3.062 73.956 3.062 74.604 3.062 75.192 3.176 75.684 3.404 76.08 3.644 76.464 3.956 76.782 4.34 77.034 4.736 77.274 5.18 77.472 5.672 77.628 6.164 77.772 6.662 77.904 7.166 78.024 7.682 78.132 8.186 78.24 8.678 78.348 9.17 78.456 9.608 78.6 9.992 78.78 10.388 78.948 10.7 79.17 10.928 79.446 11.168 79.722 11.288 80.082 11.288 80.526 11.288 80.994 11.192 81.378 11 81.678 10.808 81.978 10.556 82.218 10.244 82.398 9.932 82.566 9.578 82.686 9.182 82.758 8.798 82.83 8.414 82.866 8.03 82.866 7.55 82.866 7.082 82.806 6.626 82.686 6.17 82.566 5.768 82.38 5.42 82.128 5.084 81.876 4.808 81.558 4.592 81.174 4.388 80.778 4.286 80.31 4.286 79.77H2.666C2.666 80.55 2.804 81.228 3.08 81.804 3.368 82.368 3.752 82.836 4.232 83.208 4.724 83.568 5.288 83.838 5.924 84.018 6.572 84.198 7.256 84.288 7.976 84.288 8.564 84.288 9.152 84.216 9.74 84.072 10.34 83.94 10.88 83.724 11.36 83.424 11.84 83.112 12.23 82.716 12.53 82.236 12.842 81.744 12.998 81.156 12.998 80.472 12.998 79.836 12.878 79.308 12.638 78.888 12.41 78.468 12.098 78.12 11.702 77.844 11.318 77.568 10.88 77.352 10.388 77.196 9.896 77.028 9.392 76.884 8.876 76.764 8.372 76.644 7.874 76.536 7.382 76.44 6.89 76.332 6.446 76.2 6.05 76.044 5.666 75.888 5.354 75.69 5.114 75.45 4.886 75.198 4.772 74.874 4.772 74.478 4.772 74.058 4.85 73.71 5.006 73.434 5.174 73.146 5.39 72.918 5.654 72.75 5.93 72.582 6.242 72.462 6.59 72.39 6.938 72.318 7.292 72.282 7.652 72.282 8.54 72.282 9.266 72.492 9.83 72.912 10.406 73.32 10.742 73.986 10.838 74.91zM16.4439 73.02V71.148H14.9139V73.02H16.4439zM14.9139 74.694V84H16.4439V74.694H14.9139zM18.8141 74.694V84H20.3441V78.204C20.3441 78.024 20.3861 77.802 20.4701 77.538 20.5661 77.262 20.7101 76.998 20.9021 76.746 21.1061 76.494 21.3641 76.278 21.6761 76.098 22.0001 75.918 22.3841 75.828 22.8281 75.828 23.1761 75.828 23.4581 75.882 23.6741 75.99 23.9021 76.086 24.0821 76.23 24.2141 76.422 24.3461 76.602 24.4361 76.818 24.4841 77.07 24.5441 77.322 24.5741 77.598 24.5741 77.898V84H26.1041V78.204C26.1041 77.484 26.3201 76.908 26.7521 76.476 27.1841 76.044 27.7781 75.828 28.5341 75.828 28.9061 75.828 29.2061 75.882 29.4341 75.99 29.6741 76.098 29.8601 76.248 29.9921 76.44 30.1241 76.62 30.2141 76.836 30.2621 77.088 30.3101 77.34 30.3341 77.61 30.3341 77.898V84H31.8641V77.178C31.8641 76.698 31.7861 76.29 31.6301 75.954 31.4861 75.606 31.2761 75.324 31.0001 75.108 30.7361 74.892 30.4121 74.736 30.0281 74.64 29.6561 74.532 29.2361 74.478 28.7681 74.478 28.1561 74.478 27.5921 74.616 27.0761 74.892 26.5721 75.168 26.1641 75.558 25.8521 76.062 25.6601 75.486 25.3301 75.078 24.8621 74.838 24.3941 74.598 23.8721 74.478 23.2961 74.478 21.9881 74.478 20.9861 75.006 20.2901 76.062H20.2541V74.694H18.8141zM34.2138 74.694V87.546H35.7438V82.758H35.7798C35.9478 83.034 36.1518 83.268 36.3918 83.46 36.6438 83.64 36.9078 83.784 37.1838 83.892 37.4598 84 37.7358 84.078 38.0118 84.126 38.2998 84.174 38.5578 84.198 38.7858 84.198 39.4938 84.198 40.1118 84.072 40.6398 83.82 41.1798 83.568 41.6238 83.226 41.9718 82.794 42.3318 82.35 42.5958 81.834 42.7638 81.246 42.9438 80.658 43.0338 80.034 43.0338 79.374 43.0338 78.714 42.9438 78.09 42.7638 77.502 42.5838 76.914 42.3138 76.398 41.9538 75.954 41.6058 75.498 41.1618 75.138 40.6218 74.874 40.0938 74.61 39.4698 74.478 38.7498 74.478 38.1018 74.478 37.5078 74.598 36.9678 74.838 36.4278 75.066 36.0318 75.438 35.7798 75.954H35.7438V74.694H34.2138zM41.4138 79.266C41.4138 79.722 41.3658 80.166 41.2698 80.598 41.1738 81.03 41.0178 81.414 40.8018 81.75 40.5858 82.086 40.2978 82.356 39.9378 82.56 39.5898 82.764 39.1518 82.866 38.6238 82.866 38.0958 82.866 37.6458 82.77 37.2738 82.578 36.9018 82.374 36.5958 82.11 36.3558 81.786 36.1278 81.462 35.9598 81.09 35.8518 80.67 35.7438 80.238 35.6898 79.794 35.6898 79.338 35.6898 78.906 35.7378 78.48 35.8338 78.06 35.9418 77.64 36.1098 77.268 36.3378 76.944 36.5658 76.608 36.8598 76.338 37.2198 76.134 37.5798 75.93 38.0178 75.828 38.5338 75.828 39.0258 75.828 39.4518 75.924 39.8118 76.116 40.1838 76.308 40.4838 76.566 40.7118 76.89 40.9518 77.214 41.1258 77.586 41.2338 78.006 41.3538 78.414 41.4138 78.834 41.4138 79.266zM44.9197 71.148V84H46.4497V71.148H44.9197zM55.282 78.456H49.936C49.96 78.096 50.038 77.76 50.17 77.448 50.302 77.124 50.482 76.842 50.71 76.602 50.938 76.362 51.208 76.176 51.52 76.044 51.844 75.9 52.204 75.828 52.6 75.828 52.984 75.828 53.332 75.9 53.644 76.044 53.968 76.176 54.244 76.362 54.472 76.602 54.712 76.83 54.898 77.106 55.03 77.43 55.174 77.754 55.258 78.096 55.282 78.456zM56.758 81.048H55.246C55.114 81.66 54.838 82.116 54.418 82.416 54.01 82.716 53.482 82.866 52.834 82.866 52.33 82.866 51.892 82.782 51.52 82.614 51.148 82.446 50.842 82.224 50.602 81.948 50.362 81.66 50.188 81.336 50.08 80.976 49.972 80.604 49.924 80.214 49.936 79.806H56.902C56.926 79.242 56.872 78.648 56.74 78.024 56.62 77.4 56.392 76.824 56.056 76.296 55.732 75.768 55.294 75.336 54.742 75 54.202 74.652 53.518 74.478 52.69 74.478 52.054 74.478 51.466 74.598 50.926 74.838 50.398 75.078 49.936 75.414 49.54 75.846 49.156 76.278 48.856 76.788 48.64 77.376 48.424 77.964 48.316 78.612 48.316 79.32 48.34 80.028 48.442 80.682 48.622 81.282 48.814 81.882 49.096 82.398 49.468 82.83 49.84 83.262 50.296 83.598 50.836 83.838 51.388 84.078 52.036 84.198 52.78 84.198 53.836 84.198 54.712 83.934 55.408 83.406 56.104 82.878 56.554 82.092 56.758 81.048zM58.1279 75.756H59.6579C59.6459 75.372 59.6819 74.994 59.7659 74.622 59.8619 74.238 60.0119 73.896 60.2159 73.596 60.4199 73.296 60.6779 73.056 60.9899 72.876 61.3139 72.684 61.6979 72.588 62.1419 72.588 62.4779 72.588 62.7959 72.642 63.0959 72.75 63.3959 72.858 63.6539 73.014 63.8699 73.218 64.0979 73.422 64.2779 73.668 64.4099 73.956 64.5419 74.232 64.6079 74.544 64.6079 74.892 64.6079 75.336 64.5359 75.726 64.3919 76.062 64.2599 76.398 64.0559 76.71 63.7799 76.998 63.5159 77.286 63.1799 77.574 62.7719 77.862 62.3639 78.138 61.8899 78.444 61.3499 78.78 60.9059 79.044 60.4799 79.326 60.0719 79.626 59.6639 79.926 59.2979 80.274 58.9739 80.67 58.6499 81.066 58.3799 81.534 58.1639 82.074 57.9599 82.602 57.8279 83.244 57.7679 84H66.1019V82.65H59.5499C59.6219 82.254 59.7719 81.906 59.9999 81.606 60.2399 81.294 60.5219 81.006 60.8459 80.742 61.1819 80.478 61.5479 80.232 61.9439 80.004 62.3399 79.764 62.7359 79.524 63.1319 79.284 63.5279 79.032 63.9119 78.768 64.2839 78.492 64.6559 78.216 64.9859 77.91 65.2739 77.574 65.5619 77.226 65.7899 76.836 65.9579 76.404 66.1379 75.972 66.2279 75.474 66.2279 74.91 66.2279 74.31 66.1199 73.782 65.9039 73.326 65.6999 72.87 65.4179 72.492 65.0579 72.192 64.6979 71.88 64.2719 71.646 63.7799 71.49 63.2999 71.322 62.7839 71.238 62.2319 71.238 61.5599 71.238 60.9599 71.352 60.4319 71.58 59.9039 71.808 59.4599 72.126 59.0999 72.534 58.7519 72.93 58.4939 73.404 58.3259 73.956 58.1579 74.508 58.0919 75.108 58.1279 75.756zM70.4519 76.674V72.588H73.8719C74.2439 72.588 74.5919 72.612 74.9159 72.66 75.2519 72.696 75.5459 72.786 75.7979 72.93 76.0499 73.074 76.2479 73.278 76.3919 73.542 76.5359 73.806 76.6079 74.166 76.6079 74.622 76.6079 75.306 76.3919 75.822 75.9599 76.17 75.5399 76.506 74.8439 76.674 73.8719 76.674H70.4519zM68.7419 71.148V84H74.9519C75.5879 84 76.1459 83.898 76.6259 83.694 77.1179 83.478 77.5259 83.202 77.8499 82.866 78.1859 82.518 78.4379 82.122 78.6059 81.678 78.7739 81.234 78.8579 80.778 78.8579 80.31 78.8579 79.518 78.6479 78.846 78.2279 78.294 77.8079 77.742 77.2019 77.382 76.4099 77.214V77.178C77.0219 76.938 77.4899 76.572 77.8139 76.08 78.1499 75.576 78.3179 74.982 78.3179 74.298 78.3179 73.65 78.1679 73.104 77.8679 72.66 77.5799 72.216 77.2259 71.868 76.8059 71.616 76.6139 71.496 76.3799 71.406 76.1039 71.346 75.8399 71.286 75.5519 71.244 75.2399 71.22 74.9279 71.184 74.6099 71.166 74.2859 71.166 73.9739 71.154 73.6799 71.148 73.4039 71.148H68.7419zM70.4519 82.56V78.114H74.3579C74.7179 78.114 75.0659 78.15 75.4019 78.222 75.7379 78.282 76.0319 78.396 76.2839 78.564 76.5479 78.72 76.7579 78.936 76.9139 79.212 77.0699 79.488 77.1479 79.836 77.1479 80.256 77.1479 80.976 76.9319 81.54 76.4999 81.948 76.0799 82.356 75.4919 82.56 74.7359 82.56H70.4519zM81.334 85.578H86.07C89.918 80.4967 92.804 75.0207 94.728 69.15 96.7013 63.23 97.688 57.3593 97.688 51.538 97.688 48.282 97.4167 45.174 96.874 42.214 96.3313 39.254 95.542 36.368 94.506 33.556 93.5193 30.6947 92.3107 27.9073 90.88 25.194 89.4493 22.4313 87.846 19.6687 86.07 16.906H81.334C84.7873 22.5793 87.254 28.228 88.734 33.852 90.2633 39.4267 91.028 45.322 91.028 51.538 91.028 57.5567 90.288 63.3533 88.808 68.928 87.328 74.4533 84.8367 80.0033 81.334 85.578z" class="color000 svgShape"/></g><defs><clipPath id="a"><rect width="100" height="100" fill="#fff" class="colorfff svgShape"/></clipPath></defs></svg></svg>